<?xml version="1.0" encoding="utf-8"?>
<!-- Generator: Adobe Illustrator 23.0.3, SVG Export Plug-In . SVG Version: 6.00 Build 0)  -->
<svg version="1.1" id="Layer_1" xmlns="http://www.w3.org/2000/svg" xmlns:xlink="http://www.w3.org/1999/xlink" x="0px" y="0px"
	 viewBox="0 0 187.5 165.5" style="enable-background:new 0 0 187.5 165.5;" xml:space="preserve">
<style type="text/css">
	.st0{fill:#154987;}
	.st1{fill:#FFFFFF;}
	.st2{fill:#F16322;}
</style>
<g>
	<g>
		<path class="st0" d="M17.8,130.6h-2.6v-12.9l-3.9,12.9H9.8l-4-12.9v12.9H3.8v-14.7h4l3,9.5l2.9-9.5h4.1L17.8,130.6L17.8,130.6z"/>
		<path class="st0" d="M23.7,118.5h-2.4v-2.6h2.4V118.5z M23.7,130.6h-2.4v-10.9h2.4V130.6z"/>
		<path class="st0" d="M33.2,126.6l2.1,0.2c-0.3,1.4-0.8,2.4-1.5,3s-1.7,1-2.8,1c-1.5,0-2.6-0.6-3.4-1.6s-1.2-2.4-1.2-4
			c0-1.6,0.4-3,1.3-4.1c0.9-1.1,2-1.6,3.4-1.6c2.3,0,3.7,1.3,4.1,3.7l-2.1,0.3c-0.2-1.4-0.8-2-1.9-2c-0.8,0-1.4,0.4-1.8,1.1
			s-0.6,1.6-0.6,2.6c0,1.1,0.2,1.9,0.6,2.5c0.4,0.6,0.9,0.9,1.6,0.9C32.1,128.7,32.8,128,33.2,126.6z"/>
		<path class="st0" d="M40,130.6h-2.4v-10.9h2.2v2.6c0.3-1,0.7-1.8,1.3-2.2c0.5-0.5,1.1-0.7,1.7-0.7c0.1,0,0.2,0,0.3,0v2.6
			c-1.2,0-2,0.4-2.4,1.2s-0.6,1.6-0.6,2.3V130.6z"/>
		<path class="st0" d="M49.2,130.8c-1.6,0-2.8-0.6-3.6-1.7s-1.2-2.5-1.2-4c0-1.6,0.5-2.9,1.4-4c0.9-1.1,2.1-1.6,3.6-1.6
			c1.4,0,2.6,0.5,3.5,1.6c0.9,1,1.4,2.4,1.4,4.1c0,1.7-0.5,3.1-1.4,4.1C51.9,130.3,50.7,130.8,49.2,130.8z M49.3,128.8
			c1.6,0,2.4-1.2,2.4-3.7c0-1.1-0.2-2-0.6-2.6c-0.4-0.6-1-1-1.8-1c-0.8,0-1.4,0.3-1.8,1s-0.6,1.5-0.6,2.6c0,1.2,0.2,2.1,0.6,2.7
			C48,128.5,48.6,128.8,49.3,128.8z"/>
		<path class="st0" d="M59.4,134.3H57v-14.5h2.3v1.9c0.7-1.4,1.8-2.1,3.2-2.1c1.2,0,2.1,0.5,2.8,1.6s1.1,2.4,1.1,4
			c0,1.5-0.3,2.9-1,4s-1.7,1.7-3,1.7c-1.4,0-2.3-0.6-3-1.7L59.4,134.3L59.4,134.3z M59.4,126.1c0,0.8,0.2,1.4,0.7,2s1,0.8,1.5,0.8
			c0.8,0,1.3-0.3,1.7-1s0.5-1.6,0.5-2.6c0-1.1-0.2-2-0.5-2.7c-0.4-0.7-0.9-1-1.6-1c-0.6,0-1.2,0.3-1.6,0.9s-0.7,1.3-0.7,2.2
			L59.4,126.1L59.4,126.1z"/>
		<path class="st0" d="M71.4,118.5H69v-2.6h2.4V118.5z M71.4,130.6H69v-10.9h2.4V130.6z"/>
		<path class="st0" d="M84.4,117.6v1.9h-0.7c-0.3,0-0.6,0-0.8,0.1c-0.2,0.1-0.5,0.3-0.7,0.8c0.8,0.7,1.3,1.5,1.3,2.4
			c0,1-0.4,1.8-1.2,2.4c-0.8,0.6-1.8,0.9-3.1,0.9c-0.6,0-1.2-0.1-2-0.3c-0.5,0.2-0.7,0.6-0.7,1.1c0,0.3,0.1,0.5,0.4,0.7
			s0.6,0.3,1.1,0.3H81c1.1,0,1.9,0.3,2.5,0.9s0.9,1.3,0.9,2.1c0,1-0.5,1.9-1.4,2.6s-2.3,1-4.1,1c-3.4,0-5.1-1-5.1-2.9
			c0-1,0.5-1.7,1.5-2.2c-0.7-0.6-1-1.2-1-1.8c0-0.9,0.6-1.7,1.7-2.3c-1-0.6-1.5-1.4-1.5-2.5c0-0.9,0.4-1.7,1.1-2.3s1.8-1,3.3-1
			c0.7,0,1.4,0.1,2,0.2c0.3-1.4,1.2-2.1,2.5-2.1L84.4,117.6L84.4,117.6z M76.4,130c-0.3,0.3-0.5,0.6-0.5,0.9c0,0.5,0.3,0.9,0.9,1.3
			s1.5,0.6,2.7,0.6c1.8,0,2.8-0.5,2.8-1.4c0-0.4-0.2-0.6-0.5-0.8c-0.3-0.2-0.7-0.3-1.1-0.3h-2.5C77.6,130.3,77.1,130.2,76.4,130z
			 M79,124.6c1.3,0,1.9-0.6,1.9-1.9c0-0.5-0.2-0.9-0.5-1.2s-0.8-0.5-1.4-0.5c-0.6,0-1.1,0.2-1.5,0.5s-0.5,0.8-0.5,1.3
			c0,0.5,0.2,1,0.5,1.3C77.9,124.5,78.4,124.6,79,124.6z"/>
		<path class="st0" d="M102.2,130.6h-2.5v-6.8c0-1.4-0.6-2.1-1.8-2.1c-0.7,0-1.3,0.3-1.7,0.8s-0.6,1.3-0.6,2.4v5.7H93v-6.8
			c0-1.4-0.6-2.1-1.7-2.1c-0.7,0-1.3,0.3-1.7,0.9s-0.7,1.4-0.7,2.3v5.7h-2.5v-10.9h2.3v2.3c0.8-1.7,1.9-2.5,3.5-2.5
			c1.6,0,2.6,0.9,3,2.5c0.9-1.7,2-2.5,3.5-2.5c1,0,1.8,0.3,2.5,1c0.6,0.6,0.9,1.5,0.9,2.4L102.2,130.6L102.2,130.6z"/>
		<path class="st0" d="M112.3,127.1l2.1,0.3c-0.3,1-0.8,1.8-1.6,2.4s-1.8,1-3,1c-1.5,0-2.6-0.5-3.5-1.5c-0.9-1-1.3-2.4-1.3-4.1
			c0-1.6,0.4-3,1.4-4.1c0.9-1.1,2.1-1.6,3.7-1.6c1.5,0,2.7,0.5,3.5,1.6s1.2,2.4,1.2,4.1l0,0.3h-7.3c0,0.7,0.1,1.3,0.2,1.8
			c0.1,0.4,0.4,0.8,0.8,1.2s0.9,0.5,1.5,0.5C111.1,128.9,111.9,128.3,112.3,127.1z M112.2,123.9c0-0.8-0.2-1.4-0.7-1.9
			c-0.4-0.5-1-0.7-1.7-0.7s-1.2,0.2-1.6,0.7s-0.7,1.1-0.8,2H112.2z"/>
		<path class="st0" d="M126.1,130.6h-2.4v-6.8c0-0.7-0.2-1.3-0.5-1.6c-0.3-0.4-0.7-0.5-1.2-0.5c-0.6,0-1.2,0.3-1.6,0.8
			s-0.7,1.4-0.7,2.5v5.6h-2.4v-10.9h2.2v2.5c0.8-1.8,1.8-2.7,3.2-2.7c0.9,0,1.7,0.3,2.4,0.9c0.7,0.6,1,1.7,1,3.2L126.1,130.6
			L126.1,130.6z"/>
		<path class="st0" d="M134.4,128.7v1.9c-0.7,0.2-1.3,0.2-1.6,0.2c-0.6,0-1.2-0.1-1.6-0.4c-0.5-0.3-0.8-0.6-1-1.1s-0.3-1.2-0.3-2.1
			v-5.6h-1.3v-1.9h1.4l0.2-2.8l2-0.2v3h2.1v1.9h-2.1v5.3c0,0.7,0.1,1.1,0.4,1.4c0.2,0.3,0.7,0.4,1.4,0.4
			C134,128.7,134.2,128.7,134.4,128.7z"/>
		<path class="st0" d="M146,130.6h-2.3c-0.2-0.7-0.3-1.4-0.4-2.2c-0.6,1.6-1.8,2.4-3.6,2.4c-1.1,0-1.9-0.3-2.5-0.9
			c-0.6-0.6-1-1.4-1-2.4c0-2.5,2.1-3.7,6.4-3.7c0.2,0,0.4,0,0.7,0v-0.8c0-1.1-0.8-1.7-2.2-1.7c-1.4,0-2.3,0.6-2.5,1.7l-2-0.3
			c0.1-0.9,0.6-1.6,1.4-2.2s1.9-0.9,3.4-0.9c0.8,0,1.5,0.1,2,0.2s0.9,0.4,1.3,0.7s0.6,0.7,0.7,1.1s0.2,1.1,0.2,2v4.9
			C145.7,129.1,145.8,129.8,146,130.6z M143.4,125.1c-3.1,0-4.6,0.8-4.6,2.3c0,0.4,0.2,0.8,0.5,1.2s0.8,0.5,1.4,0.5
			c0.9,0,1.6-0.3,2.1-0.9s0.7-1.3,0.7-2L143.4,125.1L143.4,125.1z"/>
		<path class="st0" d="M153,130.8l-0.2,0.8c0.7,0,1.3,0.2,1.6,0.5s0.6,0.7,0.6,1.2c0,0.5-0.2,0.9-0.6,1.2c-0.4,0.4-0.9,0.5-1.5,0.5
			c-0.5,0-1.2-0.2-2.1-0.6l0.3-0.8c0.6,0.3,1.1,0.5,1.6,0.5c0.2,0,0.4-0.1,0.6-0.2c0.2-0.1,0.2-0.3,0.2-0.5c0-0.6-0.5-0.9-1.6-0.9
			c-0.1,0-0.3,0-0.5,0l0.5-1.7c-1.2-0.2-2.1-0.8-2.8-1.9c-0.7-1-1-2.3-1-3.7c0-1.6,0.4-3,1.3-4.1c0.9-1.1,2-1.6,3.4-1.6
			c2.3,0,3.7,1.3,4.1,3.7l-2.1,0.3c-0.2-1.4-0.8-2-1.9-2c-0.8,0-1.4,0.4-1.8,1.1c-0.4,0.7-0.6,1.6-0.6,2.6c0,1.1,0.2,1.9,0.6,2.5
			c0.4,0.6,0.9,0.9,1.6,0.9c1.1,0,1.7-0.7,2.1-2.1l2.1,0.2C156.7,129.4,155.3,130.7,153,130.8z"/>
		<path class="st0" d="M168.6,130.6h-2.3c-0.2-0.7-0.3-1.4-0.4-2.2c-0.6,1.6-1.8,2.4-3.6,2.4c-1.1,0-1.9-0.3-2.5-0.9
			c-0.6-0.6-1-1.4-1-2.4c0-2.5,2.1-3.7,6.4-3.7c0.2,0,0.4,0,0.7,0v-0.8c0-1.1-0.8-1.7-2.2-1.7c-1.4,0-2.3,0.6-2.5,1.7l-2-0.3
			c0.1-0.9,0.6-1.6,1.4-2.2s1.9-0.9,3.4-0.9c0.8,0,1.5,0.1,2,0.2s0.9,0.4,1.3,0.7s0.6,0.7,0.7,1.1s0.2,1.1,0.2,2v4.9
			C168.3,129.1,168.4,129.8,168.6,130.6z M166.7,115.3l0.7,1.1c-0.2,0.4-0.5,0.7-0.9,0.9s-0.8,0.4-1.2,0.4c-0.4,0-1-0.2-1.6-0.5
			c-0.5-0.3-0.8-0.4-1.1-0.4c-0.3,0-0.8,0.3-1.3,0.8l-0.7-1.1c0.6-0.8,1.4-1.2,2.1-1.2c0.4,0,0.8,0.1,1.4,0.4
			c0.6,0.3,1.1,0.4,1.4,0.4C166,116.1,166.4,115.9,166.7,115.3z M166,125.1c-3.1,0-4.6,0.8-4.6,2.3c0,0.4,0.2,0.8,0.5,1.2
			s0.8,0.5,1.4,0.5c0.9,0,1.6-0.3,2.1-0.9s0.7-1.3,0.7-2L166,125.1L166,125.1z"/>
		<path class="st0" d="M175.8,130.8c-1.6,0-2.8-0.6-3.6-1.7s-1.2-2.5-1.2-4c0-1.6,0.5-2.9,1.4-4c0.9-1.1,2.1-1.6,3.6-1.6
			c1.4,0,2.6,0.5,3.5,1.6s1.4,2.4,1.4,4.1c0,1.7-0.5,3.1-1.4,4.1C178.5,130.3,177.3,130.8,175.8,130.8z M175.9,128.8
			c1.6,0,2.4-1.2,2.4-3.7c0-1.1-0.2-2-0.6-2.6s-1-1-1.8-1c-0.8,0-1.4,0.3-1.8,1s-0.6,1.5-0.6,2.6c0,1.2,0.2,2.1,0.6,2.7
			C174.6,128.5,175.2,128.8,175.9,128.8z"/>
	</g>
</g>
<g>
	<g>
		<path class="st0" d="M15,156.3l3.2,0.4c-0.4,1.4-1.2,2.6-2.4,3.6c-1.2,0.9-2.7,1.4-4.5,1.4c-2.2,0-3.9-0.7-5.2-2.2s-2-3.5-2-6
			c0-2.4,0.7-4.4,2-6s3.1-2.4,5.4-2.4c2.2,0,3.9,0.8,5.1,2.3c1.2,1.6,1.8,3.6,1.8,6l0,0.4H7.8c0,1.1,0.1,1.9,0.3,2.6
			c0.2,0.6,0.6,1.2,1.2,1.7s1.3,0.7,2.2,0.7C13.2,158.9,14.4,158,15,156.3z M14.8,151.5c0-1.1-0.3-2.1-1-2.8s-1.5-1.1-2.4-1.1
			c-1,0-1.8,0.3-2.4,1c-0.6,0.7-1,1.6-1.1,2.9L14.8,151.5L14.8,151.5z"/>
		<path class="st0" d="M29.9,157.7l3.3-0.6c0.5,1.3,1.6,1.9,3.3,1.9c2.2,0,3.3-0.7,3.3-2c0-0.4-0.2-0.8-0.5-1
			c-0.3-0.3-0.7-0.5-1.2-0.6l-2.8-0.6c-3.1-0.6-4.7-2.2-4.7-4.7c0-1.4,0.5-2.6,1.5-3.6c1-1,2.5-1.5,4.4-1.5c3.3,0,5.3,1.2,6,3.7
			l-3.1,0.6c-0.3-1.2-1.3-1.8-2.8-1.8c-1.9,0-2.8,0.6-2.8,1.8c0,0.8,0.8,1.4,2.3,1.7l3.3,0.7c2.6,0.6,3.9,2.1,3.9,4.6
			c0,1.8-0.7,3.1-2,3.9c-1.3,0.9-2.9,1.3-4.7,1.3c-1.6,0-3-0.3-4.2-1S30.2,159.1,29.9,157.7z"/>
		<path class="st0" d="M63.3,158.6v2.8c-1,0.2-1.8,0.4-2.4,0.4c-0.9,0-1.8-0.2-2.4-0.6c-0.7-0.4-1.2-0.9-1.5-1.6
			c-0.3-0.7-0.5-1.7-0.5-3.1v-8.3h-1.9v-2.8h2.1l0.3-4.1l2.9-0.3v4.4H63v2.8h-3.1v7.8c0,1,0.2,1.7,0.5,2s1,0.5,2,0.5
			C62.7,158.6,63,158.6,63.3,158.6z"/>
		<path class="st0" d="M86.2,156.3l3.2,0.4c-0.4,1.4-1.2,2.6-2.4,3.6c-1.2,0.9-2.7,1.4-4.5,1.4c-2.1,0-3.9-0.7-5.2-2.2s-2-3.5-2-6
			c0-2.4,0.7-4.4,2-6c1.3-1.6,3.1-2.4,5.4-2.4c2.2,0,3.9,0.8,5.1,2.3c1.2,1.6,1.8,3.6,1.8,6l0,0.4H79c0,1.1,0.1,1.9,0.3,2.6
			c0.2,0.6,0.6,1.2,1.2,1.7s1.3,0.7,2.2,0.7C84.5,158.9,85.6,158,86.2,156.3z M86,151.5c0-1.1-0.4-2.1-1-2.8s-1.5-1.1-2.4-1.1
			c-1,0-1.8,0.3-2.4,1c-0.6,0.7-1,1.6-1.1,2.9L86,151.5L86,151.5z M86.3,137.9l1,2.4l-6.4,2.8l-0.6-1.7L86.3,137.9z"/>
		<path class="st0" d="M110.2,158.6v2.8c-1,0.2-1.9,0.4-2.4,0.4c-0.9,0-1.8-0.2-2.4-0.6s-1.2-0.9-1.5-1.6s-0.5-1.7-0.5-3.1v-8.3
			h-1.9v-2.8h2.1l0.3-4.1l2.9-0.3v4.4h3.1v2.8h-3.1v7.8c0,1,0.2,1.7,0.5,2s1,0.5,2,0.5C109.6,158.6,109.9,158.6,110.2,158.6z"/>
		<path class="st0" d="M126.8,143.6h-3.5v-3.7h3.5V143.6z M126.8,161.4h-3.5v-15.9h3.5V161.4z"/>
		<path class="st0" d="M150,155.5l3,0.3c-0.4,2-1.1,3.5-2.3,4.4c-1.1,1-2.5,1.4-4,1.4c-2.1,0-3.8-0.8-4.9-2.4
			c-1.1-1.6-1.7-3.6-1.7-5.9c0-2.4,0.6-4.4,1.9-5.9c1.3-1.6,2.9-2.4,5-2.4c3.4,0,5.4,1.8,6,5.5l-3,0.4c-0.3-2-1.2-3-2.8-3
			c-1.2,0-2.1,0.5-2.6,1.6c-0.5,1.1-0.8,2.4-0.8,3.9c0,1.6,0.3,2.9,0.8,3.7s1.3,1.3,2.3,1.3C148.5,158.6,149.5,157.6,150,155.5z"/>
		<path class="st0" d="M179.1,161.4h-3.3c-0.3-1-0.5-2-0.5-3.2c-0.9,2.4-2.7,3.6-5.2,3.6c-1.5,0-2.8-0.5-3.7-1.4s-1.4-2.1-1.4-3.5
			c0-3.7,3.1-5.5,9.4-5.5c0.3,0,0.6,0,1,0v-1.2c0-1.6-1.1-2.5-3.3-2.5c-2.1,0-3.3,0.8-3.6,2.5l-3-0.5c0.2-1.3,0.8-2.4,2-3.3
			c1.2-0.9,2.9-1.3,5.1-1.3c1.2,0,2.2,0.1,2.9,0.3c0.8,0.2,1.4,0.6,1.9,1c0.5,0.5,0.9,1,1.1,1.6s0.3,1.5,0.3,2.9v7.2
			C178.7,159.2,178.8,160.3,179.1,161.4z M175.3,153.3c-4.5,0-6.8,1.1-6.8,3.3c0,0.7,0.2,1.2,0.7,1.7s1.1,0.7,2.1,0.7
			c1.3,0,2.3-0.4,3-1.3c0.7-0.9,1-1.9,1-3L175.3,153.3L175.3,153.3z"/>
	</g>
</g>
<g>
	<path class="st0" d="M58.5,87.5C54,93.3,49.9,99.1,46,104.9h19.5V87.5H58.5z M22.9,9.2H4.7v95.7h6.8c4-5.8,8.4-11.6,13-17.4h-1.6
		V9.2z"/>
	<path class="st0" d="M164.3,10.6L164.3,10.6c-0.4-0.1-0.8-0.1-1.1-0.1c-1.6,0.1-3.3,0.2-5.1,0.5h0c-4.3,0.7-8.9,2-13.7,3.9
		l-20.4,60.9l-13.6-40.9c-4.6,3.5-9.3,7.4-13.9,11.5l19.4,58.3h16.1l20.3-60.4l10.3,60.4h17.6L164.3,10.6z M101.7,9.2H83.9l-4.1,24
		c8.3-6.3,16.5-11.8,24.5-16.3L101.7,9.2z M73.5,69.5l-6.1,35.4h17.8l9.9-57.1C87.8,54.3,80.6,61.6,73.5,69.5z"/>
	<path class="st1" d="M169.9,11.7c-1.8-0.5-3.6-0.9-5.6-1c-0.4,0-0.8-0.1-1.1-0.1c0.4,0,0.7,0,1.1,0c1.7,0,3.4,0.1,5,0.3h0
		C169.5,11.1,169.7,11.4,169.9,11.7z"/>
	<path class="st2" d="M185,28.6c-1.4-5.6-4-10.1-7.9-13.2c-2.1-1.7-4.5-2.9-7.2-3.8c-2.1-0.6-4.4-1-6.8-1.1c-2.1-0.1-4.3,0-6.5,0.3
		c-26.2,3.2-65.1,30.8-98.7,72.6c-5.7,7.1-11.1,14.3-15.9,21.5c0,0,0,0,0,0l-9.5,0l-11.5,0c7.3-10.5,15.7-21.1,25.1-31.6
		C83.2,32,124.8,5.4,152.9,2.6c2.3-0.2,4.4-0.3,6.5-0.2c6.9,0.3,12.7,2.3,17.1,6.2c2.8,2.6,4.9,5.8,6.3,9.6
		C184.1,21.3,184.8,24.8,185,28.6z"/>
</g>
</svg>
