<?xml version="1.0" encoding="utf-8"?>
<!-- Generator: Adobe Illustrator 23.0.3, SVG Export Plug-In . SVG Version: 6.00 Build 0)  -->
<svg version="1.1" id="Layer_1" xmlns="http://www.w3.org/2000/svg" xmlns:xlink="http://www.w3.org/1999/xlink" x="0px" y="0px"
	 viewBox="0 0 283.46 283.46" style="enable-background:new 0 0 283.46 283.46;" xml:space="preserve">
<style type="text/css">
	.st0{fill:#FFFFFF;}
	.st1{fill:#154987;}
	.st2{fill:#F16322;}
</style>
<g>
	<path class="st0" d="M58.47,69.7h18.22v78.34h42.55v17.37H58.47V69.7z"/>
	<path class="st0" d="M137.71,69.7h17.75l22.19,66.76l22.39-66.76h17.74l16.06,95.71h-17.62l-10.26-60.45l-20.33,60.45h-16.06
		l-20.15-60.45l-10.51,60.45h-17.76L137.71,69.7z"/>
</g>
<g>
	<path class="st1" d="M222.63,72.19c-2.1-0.63-4.36-1-6.77-1.1c-1.64,0.07-3.32,0.24-5.07,0.53h-0.01c-0.47-0.1-0.95-0.18-1.44-0.25
		c-25.57-3.7-70.26,25.42-108.2,72.59c-5.73,7.13-11.03,14.32-15.86,21.48c-0.01,0-0.01,0.01-0.01,0.01
		c-0.01,0.01-0.01,0.02-0.02,0.03l-20.99-0.07c7.32-10.51,15.71-21.14,25.07-31.57c41.48-46.24,88.83-74.07,116.35-70.75
		c0.48,0.05,0.94,0.12,1.4,0.2c0.01,0,0.01,0,0.02,0c4.98,0.82,9.27,2.73,12.69,5.79c0.79,0.71,1.52,1.47,2.18,2.29h0.01
		C222.22,71.64,222.43,71.91,222.63,72.19z"/>
	<path class="st1" d="M236.7,78.66c-0.84-0.99-1.76-1.9-2.77-2.72c-3.04-2.46-6.72-3.97-10.92-4.57H223
		c-1.93-0.28-3.97-0.37-6.11-0.28c-1.64,0.07-3.32,0.24-5.07,0.53h-0.01c-26.02,4.2-63.68,31.51-96.32,72.34
		c-5.71,7.14-10.99,14.35-15.79,21.52l-3.87-0.01l-9.52-0.03l-7.48-0.03c7.27-10.51,15.62-21.14,24.92-31.57
		c36-40.38,76.47-66.73,104.36-70.55c0.01,0,0.01,0,0.02,0c1.75-0.23,3.46-0.38,5.11-0.44c6.9,0.27,12.73,2.29,17.12,6.23
		C233.2,71.63,235.3,74.85,236.7,78.66z"/>
	<path class="st2" d="M238.78,89.18c-1.37-5.59-3.98-10.09-7.9-13.24c-2.12-1.7-4.53-2.94-7.22-3.75c-2.1-0.63-4.36-1-6.77-1.1
		c-2.07-0.1-4.25,0-6.52,0.28c-26.22,3.23-65.09,30.84-98.66,72.59c-5.74,7.14-11.05,14.34-15.88,21.51c-0.01,0-0.01,0.01-0.01,0.01
		l-9.52-0.03l-11.47-0.04c7.32-10.51,15.71-21.14,25.07-31.57c37.02-41.26,78.71-67.87,106.81-70.75c2.27-0.24,4.45-0.32,6.53-0.24
		c6.9,0.27,12.73,2.29,17.12,6.23c2.84,2.55,4.94,5.77,6.34,9.58C237.86,81.79,238.55,85.31,238.78,89.18z"/>
</g>
<g>
	<g>
		<path class="st0" d="M71.52,191.12h-2.63v-12.85l-3.95,12.85h-1.35l-3.97-12.85v12.85h-2.1v-14.68h4.03l2.99,9.46l2.94-9.46h4.05
			V191.12z"/>
		<path class="st0" d="M77.44,178.99h-2.38v-2.55h2.38V178.99z M77.44,191.12h-2.38v-10.86h2.38V191.12z"/>
		<path class="st0" d="M86.94,187.13l2.05,0.21c-0.27,1.36-0.78,2.37-1.54,3.02s-1.68,0.98-2.75,0.98c-1.46,0-2.58-0.55-3.36-1.64
			c-0.78-1.09-1.18-2.43-1.18-4.02c0-1.63,0.43-2.99,1.29-4.06c0.86-1.07,2-1.6,3.43-1.6c2.3,0,3.67,1.25,4.11,3.74l-2.05,0.29
			c-0.18-1.35-0.83-2.02-1.94-2.02c-0.81,0-1.4,0.36-1.76,1.09s-0.55,1.61-0.55,2.64c0,1.1,0.19,1.94,0.57,2.54
			c0.38,0.6,0.91,0.89,1.6,0.89C85.9,189.21,86.6,188.51,86.94,187.13z"/>
		<path class="st0" d="M93.74,191.12h-2.38v-10.86h2.15v2.59c0.31-1.01,0.73-1.75,1.27-2.22c0.54-0.47,1.09-0.7,1.65-0.7
			c0.08,0,0.18,0,0.31,0.01v2.64c-1.21,0-2.02,0.4-2.41,1.19s-0.59,1.57-0.59,2.31V191.12z"/>
		<path class="st0" d="M103,191.35c-1.56,0-2.75-0.58-3.58-1.73s-1.23-2.48-1.23-3.97c0-1.61,0.46-2.94,1.37-4.01
			c0.91-1.07,2.11-1.6,3.6-1.6c1.42,0,2.58,0.52,3.49,1.56c0.91,1.04,1.36,2.39,1.36,4.06c0,1.71-0.47,3.09-1.42,4.14
			C105.65,190.83,104.45,191.35,103,191.35z M103.08,189.33c1.6,0,2.41-1.23,2.41-3.69c0-1.11-0.19-1.99-0.58-2.63
			c-0.38-0.64-0.97-0.96-1.77-0.96c-0.82,0-1.43,0.33-1.83,1s-0.6,1.54-0.6,2.64c0,1.18,0.21,2.09,0.63,2.71
			C101.77,189.01,102.35,189.33,103.08,189.33z"/>
		<path class="st0" d="M113.16,194.79h-2.43v-14.53h2.28v1.89c0.73-1.41,1.81-2.12,3.23-2.12c1.17,0,2.11,0.52,2.8,1.57
			s1.05,2.38,1.05,4.01c0,1.54-0.33,2.88-1,4.02c-0.67,1.14-1.66,1.71-2.98,1.71c-1.36,0-2.35-0.58-2.96-1.74V194.79z
			 M113.16,186.67c0,0.79,0.23,1.44,0.69,1.96c0.46,0.52,0.96,0.78,1.52,0.78c0.76,0,1.32-0.34,1.67-1.03s0.53-1.55,0.53-2.61
			c0-1.1-0.18-2-0.53-2.69c-0.36-0.69-0.89-1.04-1.59-1.04c-0.63,0-1.17,0.28-1.62,0.85s-0.66,1.31-0.66,2.23V186.67z"/>
		<path class="st0" d="M125.18,178.99h-2.38v-2.55h2.38V178.99z M125.18,191.12h-2.38v-10.86h2.38V191.12z"/>
		<path class="st0" d="M138.21,178.18v1.88h-0.73c-0.32,0-0.6,0.04-0.84,0.12c-0.24,0.08-0.48,0.33-0.71,0.76
			c0.84,0.7,1.26,1.48,1.26,2.35c0,0.96-0.39,1.76-1.18,2.39c-0.78,0.63-1.82,0.95-3.11,0.95c-0.56,0-1.21-0.09-1.96-0.28
			c-0.49,0.23-0.73,0.58-0.73,1.06c0,0.27,0.12,0.51,0.36,0.73c0.24,0.22,0.6,0.33,1.08,0.33h3.14c1.07,0,1.92,0.29,2.53,0.86
			s0.92,1.28,0.92,2.12c0,1.03-0.46,1.88-1.39,2.55s-2.29,1.01-4.11,1.01c-3.41,0-5.11-0.98-5.11-2.94c0-0.97,0.51-1.7,1.54-2.21
			c-0.66-0.57-0.98-1.17-0.98-1.8c0-0.95,0.56-1.7,1.68-2.26c-0.98-0.61-1.46-1.45-1.46-2.52c0-0.9,0.36-1.67,1.08-2.31
			c0.72-0.64,1.81-0.96,3.27-0.96c0.67,0,1.35,0.08,2.04,0.23c0.32-1.38,1.17-2.08,2.54-2.08H138.21z M130.18,190.53
			c-0.34,0.32-0.51,0.63-0.51,0.94c0,0.5,0.29,0.93,0.86,1.31c0.57,0.38,1.48,0.56,2.73,0.56c1.83,0,2.75-0.48,2.75-1.45
			c0-0.36-0.16-0.63-0.48-0.81c-0.32-0.18-0.69-0.27-1.1-0.27h-2.53C131.41,190.8,130.84,190.71,130.18,190.53z M132.79,185.17
			c1.3,0,1.95-0.63,1.95-1.88c0-0.48-0.16-0.89-0.49-1.22s-0.8-0.5-1.42-0.5c-0.63,0-1.11,0.17-1.46,0.52s-0.52,0.77-0.52,1.29
			c0,0.53,0.17,0.96,0.51,1.29C131.71,185.01,132.19,185.17,132.79,185.17z"/>
		<path class="st0" d="M155.98,191.12h-2.5v-6.77c0-1.41-0.61-2.11-1.82-2.11c-0.71,0-1.27,0.27-1.69,0.8
			c-0.42,0.53-0.63,1.32-0.63,2.38v5.7h-2.53v-6.77c0-1.43-0.57-2.14-1.71-2.14c-0.69,0-1.27,0.29-1.74,0.86
			c-0.47,0.57-0.71,1.36-0.71,2.34v5.7h-2.46v-10.86h2.31v2.31c0.75-1.69,1.93-2.54,3.52-2.54c1.55,0,2.57,0.85,3.03,2.54
			c0.85-1.69,2.03-2.54,3.53-2.54c1.02,0,1.84,0.33,2.46,0.98c0.62,0.65,0.93,1.46,0.93,2.43V191.12z"/>
		<path class="st0" d="M166.1,187.66l2.15,0.3c-0.28,0.98-0.82,1.79-1.63,2.43c-0.81,0.64-1.82,0.96-3.04,0.96
			c-1.46,0-2.64-0.5-3.54-1.52c-0.89-1.01-1.34-2.38-1.34-4.11c0-1.64,0.45-3,1.35-4.08c0.9-1.08,2.12-1.61,3.66-1.61
			c1.51,0,2.67,0.53,3.49,1.59c0.82,1.06,1.23,2.42,1.23,4.09l-0.01,0.28h-7.25c0,0.74,0.07,1.33,0.2,1.78
			c0.14,0.44,0.41,0.83,0.81,1.16c0.4,0.33,0.91,0.5,1.52,0.5C164.89,189.42,165.69,188.83,166.1,187.66z M165.96,184.41
			c-0.01-0.78-0.24-1.42-0.69-1.91c-0.45-0.5-1.01-0.74-1.67-0.74c-0.66,0-1.2,0.23-1.64,0.69s-0.7,1.12-0.77,1.96H165.96z"/>
		<path class="st0" d="M179.9,191.12h-2.38v-6.79c0-0.72-0.16-1.26-0.48-1.62c-0.32-0.36-0.71-0.54-1.16-0.54
			c-0.62,0-1.17,0.28-1.63,0.84s-0.7,1.4-0.7,2.53v5.58h-2.38v-10.86h2.18v2.52c0.76-1.83,1.83-2.74,3.2-2.74
			c0.93,0,1.72,0.3,2.38,0.9c0.66,0.6,0.99,1.66,0.99,3.17V191.12z"/>
		<path class="st0" d="M188.19,189.21v1.92c-0.71,0.16-1.26,0.24-1.65,0.24c-0.64,0-1.19-0.13-1.65-0.39
			c-0.46-0.26-0.8-0.62-1.01-1.08s-0.32-1.16-0.32-2.1v-5.63h-1.32v-1.9h1.45l0.22-2.83l1.96-0.18v3.01h2.12v1.9h-2.12v5.3
			c0,0.68,0.12,1.15,0.36,1.39c0.24,0.25,0.7,0.37,1.37,0.37C187.78,189.23,187.98,189.22,188.19,189.21z"/>
		<path class="st0" d="M199.77,191.12h-2.27c-0.2-0.66-0.32-1.39-0.37-2.19c-0.63,1.61-1.83,2.42-3.58,2.42
			c-1.05,0-1.9-0.32-2.54-0.95c-0.64-0.63-0.96-1.43-0.96-2.39c0-2.5,2.13-3.74,6.39-3.74c0.17,0,0.39,0,0.68,0.01v-0.82
			c0-1.13-0.75-1.69-2.24-1.69c-1.45,0-2.27,0.56-2.47,1.69l-2.03-0.31c0.11-0.9,0.56-1.65,1.36-2.23s1.95-0.88,3.45-0.88
			c0.82,0,1.48,0.07,2,0.21c0.52,0.14,0.95,0.38,1.31,0.71s0.6,0.7,0.74,1.09c0.14,0.39,0.2,1.05,0.2,1.99v4.9
			C199.45,189.64,199.56,190.37,199.77,191.12z M197.13,185.59c-3.08,0-4.62,0.76-4.62,2.27c0,0.45,0.16,0.84,0.47,1.16
			c0.31,0.32,0.78,0.48,1.41,0.48c0.91,0,1.59-0.3,2.06-0.89s0.7-1.26,0.7-2.02V185.59z"/>
		<path class="st0" d="M206.79,191.34l-0.22,0.79c0.71,0,1.26,0.17,1.65,0.5s0.59,0.74,0.59,1.22c0,0.47-0.19,0.88-0.57,1.23
			c-0.38,0.35-0.87,0.53-1.46,0.53c-0.52,0-1.22-0.21-2.12-0.63l0.33-0.84c0.61,0.34,1.15,0.51,1.62,0.51
			c0.24,0,0.45-0.07,0.61-0.22c0.16-0.14,0.24-0.32,0.24-0.52c0-0.62-0.53-0.93-1.59-0.93c-0.11,0-0.27,0.01-0.48,0.02l0.54-1.71
			c-1.2-0.19-2.13-0.81-2.78-1.86c-0.66-1.04-0.98-2.29-0.98-3.74c0-1.63,0.43-2.99,1.29-4.06c0.86-1.07,2-1.6,3.43-1.6
			c2.3,0,3.67,1.25,4.11,3.74l-2.05,0.29c-0.18-1.35-0.83-2.02-1.94-2.02c-0.81,0-1.4,0.36-1.76,1.09
			c-0.37,0.73-0.55,1.61-0.55,2.64c0,1.1,0.19,1.94,0.57,2.54c0.38,0.6,0.91,0.89,1.59,0.89c1.05,0,1.74-0.69,2.08-2.08l2.05,0.21
			C210.48,189.94,209.07,191.27,206.79,191.34z"/>
		<path class="st0" d="M222.39,191.12h-2.27c-0.2-0.66-0.32-1.39-0.37-2.19c-0.63,1.61-1.83,2.42-3.58,2.42
			c-1.05,0-1.9-0.32-2.54-0.95c-0.64-0.63-0.96-1.43-0.96-2.39c0-2.5,2.13-3.74,6.39-3.74c0.17,0,0.39,0,0.68,0.01v-0.82
			c0-1.13-0.75-1.69-2.24-1.69c-1.45,0-2.27,0.56-2.47,1.69l-2.03-0.31c0.11-0.9,0.56-1.65,1.36-2.23s1.95-0.88,3.45-0.88
			c0.82,0,1.48,0.07,2,0.21c0.52,0.14,0.95,0.38,1.31,0.71s0.6,0.7,0.74,1.09c0.14,0.39,0.2,1.05,0.2,1.99v4.9
			C222.08,189.64,222.19,190.37,222.39,191.12z M220.51,175.84l0.73,1.11c-0.17,0.36-0.47,0.66-0.92,0.9s-0.84,0.36-1.19,0.36
			c-0.43,0-0.96-0.17-1.59-0.51c-0.48-0.26-0.84-0.39-1.07-0.39c-0.33,0-0.77,0.28-1.32,0.84l-0.72-1.11
			c0.65-0.82,1.35-1.24,2.1-1.24c0.36,0,0.83,0.14,1.41,0.42c0.63,0.3,1.09,0.45,1.4,0.45C219.78,176.68,220.16,176.4,220.51,175.84
			z M219.76,185.59c-3.08,0-4.62,0.76-4.62,2.27c0,0.45,0.16,0.84,0.47,1.16c0.31,0.32,0.78,0.48,1.41,0.48
			c0.91,0,1.59-0.3,2.06-0.89s0.7-1.26,0.7-2.02V185.59z"/>
		<path class="st0" d="M229.6,191.35c-1.56,0-2.75-0.58-3.58-1.73s-1.23-2.48-1.23-3.97c0-1.61,0.46-2.94,1.37-4.01
			c0.91-1.07,2.11-1.6,3.6-1.6c1.42,0,2.58,0.52,3.49,1.56c0.91,1.04,1.37,2.39,1.37,4.06c0,1.71-0.47,3.09-1.42,4.14
			C232.25,190.83,231.05,191.35,229.6,191.35z M229.69,189.33c1.6,0,2.41-1.23,2.41-3.69c0-1.11-0.19-1.99-0.58-2.63
			s-0.97-0.96-1.77-0.96c-0.82,0-1.43,0.33-1.83,1s-0.6,1.54-0.6,2.64c0,1.18,0.21,2.09,0.63,2.71
			C228.38,189.01,228.96,189.33,229.69,189.33z"/>
	</g>
</g>
<g>
	<g>
		<path class="st0" d="M68.74,216.84l3.16,0.44c-0.41,1.44-1.21,2.63-2.39,3.56c-1.19,0.94-2.67,1.4-4.46,1.4
			c-2.15,0-3.87-0.74-5.18-2.22c-1.31-1.48-1.96-3.49-1.96-6.02c0-2.41,0.66-4.4,1.98-5.98c1.32-1.58,3.11-2.37,5.37-2.37
			c2.21,0,3.92,0.78,5.12,2.33c1.21,1.56,1.81,3.55,1.81,5.99l-0.02,0.41H61.53c0,1.08,0.1,1.95,0.3,2.6c0.2,0.65,0.6,1.22,1.19,1.7
			c0.59,0.48,1.33,0.73,2.22,0.73C66.97,219.43,68.13,218.56,68.74,216.84z M68.52,212.08c-0.01-1.15-0.35-2.08-1-2.81
			s-1.47-1.09-2.45-1.09c-0.96,0-1.76,0.34-2.41,1.02c-0.64,0.68-1.02,1.64-1.13,2.88H68.52z"/>
		<path class="st0" d="M83.62,218.26l3.28-0.65c0.5,1.29,1.6,1.94,3.31,1.94c2.17,0,3.25-0.66,3.25-1.97c0-0.42-0.17-0.77-0.51-1.04
			c-0.34-0.27-0.74-0.46-1.2-0.55l-2.82-0.55c-3.13-0.62-4.69-2.19-4.69-4.71c0-1.41,0.5-2.6,1.49-3.59
			c0.99-0.98,2.47-1.47,4.43-1.47c3.27,0,5.27,1.24,6,3.71l-3.11,0.65c-0.33-1.2-1.26-1.8-2.79-1.8c-1.86,0-2.79,0.6-2.79,1.8
			c0,0.83,0.75,1.4,2.25,1.72l3.33,0.71c2.59,0.55,3.88,2.07,3.88,4.57c0,1.76-0.66,3.07-1.99,3.93c-1.33,0.87-2.91,1.3-4.74,1.3
			c-1.58,0-2.99-0.33-4.2-0.99S83.98,219.6,83.62,218.26z"/>
		<path class="st0" d="M117.08,219.11v2.81c-1.04,0.23-1.85,0.35-2.42,0.35c-0.94,0-1.75-0.19-2.42-0.58
			c-0.67-0.38-1.17-0.91-1.48-1.58c-0.31-0.67-0.47-1.7-0.47-3.08v-8.25h-1.93v-2.79h2.13l0.32-4.15l2.87-0.27v4.42h3.11v2.79h-3.11
			v7.77c0,1,0.18,1.68,0.53,2.04s1.02,0.54,2,0.54C116.48,219.14,116.78,219.13,117.08,219.11z"/>
		<path class="st0" d="M140.01,216.84l3.16,0.44c-0.41,1.44-1.21,2.63-2.39,3.56c-1.19,0.94-2.67,1.4-4.46,1.4
			c-2.15,0-3.87-0.74-5.18-2.22c-1.31-1.48-1.96-3.49-1.96-6.02c0-2.41,0.66-4.4,1.98-5.98c1.32-1.58,3.11-2.37,5.37-2.37
			c2.21,0,3.92,0.78,5.12,2.33c1.21,1.56,1.81,3.55,1.81,5.99l-0.02,0.41h-10.63c0,1.08,0.1,1.95,0.3,2.6
			c0.2,0.65,0.6,1.22,1.19,1.7c0.59,0.48,1.33,0.73,2.22,0.73C138.25,219.43,139.41,218.56,140.01,216.84z M139.8,212.08
			c-0.01-1.15-0.35-2.08-1-2.81s-1.47-1.09-2.45-1.09c-0.96,0-1.76,0.34-2.41,1.02c-0.64,0.68-1.02,1.64-1.13,2.88H139.8z
			 M140.11,198.47l1.01,2.37l-6.39,2.77l-0.64-1.69L140.11,198.47z"/>
		<path class="st0" d="M163.96,219.11v2.81c-1.04,0.23-1.85,0.35-2.42,0.35c-0.94,0-1.75-0.19-2.42-0.58s-1.17-0.91-1.48-1.58
			c-0.31-0.67-0.47-1.7-0.47-3.08v-8.25h-1.93v-2.79h2.13l0.32-4.15l2.87-0.27v4.42h3.11v2.79h-3.11v7.77c0,1,0.18,1.68,0.53,2.04
			c0.35,0.36,1.02,0.54,2,0.54C163.36,219.14,163.65,219.13,163.96,219.11z"/>
		<path class="st0" d="M180.53,204.13h-3.5v-3.74h3.5V204.13z M180.53,221.92h-3.5v-15.93h3.5V221.92z"/>
		<path class="st0" d="M203.81,216.07l3.01,0.31c-0.39,2-1.14,3.47-2.25,4.43c-1.11,0.96-2.46,1.43-4.03,1.43
			c-2.14,0-3.78-0.8-4.93-2.4c-1.15-1.6-1.72-3.57-1.72-5.89c0-2.4,0.63-4.38,1.89-5.95c1.26-1.57,2.93-2.35,5.03-2.35
			c3.37,0,5.38,1.83,6.03,5.49l-3.01,0.43c-0.27-1.98-1.21-2.96-2.84-2.96c-1.19,0-2.05,0.53-2.58,1.6
			c-0.54,1.07-0.81,2.36-0.81,3.87c0,1.61,0.28,2.85,0.84,3.72c0.56,0.87,1.34,1.31,2.34,1.31
			C202.29,219.11,203.31,218.1,203.81,216.07z"/>
		<path class="st0" d="M232.89,221.92h-3.33c-0.3-0.97-0.48-2.04-0.54-3.22c-0.93,2.37-2.68,3.55-5.24,3.55
			c-1.54,0-2.78-0.46-3.72-1.4s-1.4-2.1-1.4-3.51c0-3.66,3.12-5.49,9.37-5.49c0.25,0,0.58,0.01,1,0.02v-1.2
			c0-1.65-1.09-2.48-3.28-2.48c-2.13,0-3.33,0.83-3.62,2.48l-2.97-0.46c0.16-1.32,0.83-2.42,1.99-3.27
			c1.17-0.86,2.85-1.29,5.06-1.29c1.2,0,2.17,0.1,2.93,0.31c0.76,0.21,1.39,0.55,1.92,1.04c0.52,0.49,0.88,1.02,1.08,1.59
			s0.3,1.54,0.3,2.91v7.19C232.43,219.74,232.59,220.81,232.89,221.92z M229.03,213.81c-4.52,0-6.78,1.11-6.78,3.33
			c0,0.66,0.23,1.23,0.68,1.69s1.14,0.7,2.06,0.7c1.33,0,2.33-0.43,3.01-1.3c0.68-0.87,1.02-1.85,1.02-2.96V213.81z"/>
	</g>
</g>
</svg>
